<?xml version="1.0" standalone="no"?>
<svg xmlns:xlink="http://www.w3.org/1999/xlink" id="wave" style="transform:rotate(0deg); transition: 0.3s" viewBox="0 0 1440 490" version="1.1" xmlns="http://www.w3.org/2000/svg"><defs><linearGradient id="sw-gradient-0" x1="0" x2="0" y1="1" y2="0"><stop stop-color="rgba(255, 233, 234, 1)" offset="0%"/><stop stop-color="rgba(255, 179, 11, 1)" offset="100%"/></linearGradient></defs><path style="transform:translate(0, 0px); opacity:1" fill="url(#sw-gradient-0)" d="M0,147L48,163.3C96,180,192,212,288,245C384,278,480,310,576,285.8C672,261,768,180,864,196C960,212,1056,327,1152,310.3C1248,294,1344,147,1440,106.2C1536,65,1632,131,1728,130.7C1824,131,1920,65,2016,98C2112,131,2208,261,2304,294C2400,327,2496,261,2592,228.7C2688,196,2784,196,2880,196C2976,196,3072,196,3168,204.2C3264,212,3360,229,3456,212.3C3552,196,3648,147,3744,171.5C3840,196,3936,294,4032,343C4128,392,4224,392,4320,400.2C4416,408,4512,425,4608,392C4704,359,4800,278,4896,212.3C4992,147,5088,98,5184,122.5C5280,147,5376,245,5472,285.8C5568,327,5664,310,5760,285.8C5856,261,5952,229,6048,253.2C6144,278,6240,359,6336,351.2C6432,343,6528,245,6624,187.8C6720,131,6816,114,6864,106.2L6912,98L6912,490L6864,490C6816,490,6720,490,6624,490C6528,490,6432,490,6336,490C6240,490,6144,490,6048,490C5952,490,5856,490,5760,490C5664,490,5568,490,5472,490C5376,490,5280,490,5184,490C5088,490,4992,490,4896,490C4800,490,4704,490,4608,490C4512,490,4416,490,4320,490C4224,490,4128,490,4032,490C3936,490,3840,490,3744,490C3648,490,3552,490,3456,490C3360,490,3264,490,3168,490C3072,490,2976,490,2880,490C2784,490,2688,490,2592,490C2496,490,2400,490,2304,490C2208,490,2112,490,2016,490C1920,490,1824,490,1728,490C1632,490,1536,490,1440,490C1344,490,1248,490,1152,490C1056,490,960,490,864,490C768,490,672,490,576,490C480,490,384,490,288,490C192,490,96,490,48,490L0,490Z"/></svg>